<?xml version="1.0"?>
<svg xmlns="http://www.w3.org/2000/svg" xmlns:svg="http://www.w3.org/2000/svg" xmlns:se="http://svg-edit.googlecode.com" data-name="Layer 1">
 <g class="layer">
  <title>Layer 1</title>
  <path d="m958.39472,719.54159l-0.00856,0.09456l-0.01721,0.3955a130.356,130.356 0 0 1 -0.67062,13.26586l-60.14773,0a130.35307,130.35307 0 0 1 -0.67063,-13.26586l-0.03437,-0.49006l61.54912,0z" fill="#fff" id="svg_4" transform="translate(-214.84928 -124.57498)"/>
  <path d="m738.253,430.9007l0,0a10.1878,10.1878 0 0 0 -2.69545,-18.08783l-23.38075,-7.45712l-12.84708,11.13339l28.36128,15.03145a10.18778,10.18778 0 0 0 10.562,-0.61989z" fill="#ffb9b9" id="svg_7" transform="translate(-214.84928 -124.57498)"/>
  <path d="m698.93534,423.75854l15.41366,-17.87227l-57.39472,-62.816l-26.42595,-61.26771a18.81833,18.81833 0 0 0 -21.46151,-10.89476l0,0a18.81832,18.81832 0 0 0 -12.51968,27.01861l34.49078,66.43564l67.89742,59.39649z" fill="#e6e6e6" id="svg_8" transform="translate(-214.84928 -124.57498)"/>
  <polygon fill="#3f3d56" id="svg_9" points="520.909 535.935 517.955 531.35 512.5 531.35 512.5 529.35 519.045 529.35 522.591 534.851 520.909 535.935"/>
  <path d="m723.51724,655.925l-11.49707,0l0,-2l11.49707,0l0,2zm-15.33007,0l-11.49707,0l0,-2l11.49707,0l0,2zm-15.32911,0l-11.49706,0l0,-2l11.49707,0l-0.00001,2zm-15.33007,0l-11.49707,0l0,-2l11.49708,0l-0.00001,2zm-15.32911,0l-11.49707,0l0,-2l11.49707,0l0,2zm-15.33007,0l-10.65137,-0.00879l-0.96875,-0.12891l0.26367,-1.98242l0.90332,0.12012l10.45313,0l0,2zm-15.419,-0.64258l-11.39746,-1.51367l0.26367,-1.98242l11.39751,1.51367l-0.26372,1.98242zm-15.19629,-2.01855l-11.397,-1.51465l0.26367,-1.98242l11.397,1.51464l-0.26367,1.98243zm-15.1958,-2.01954l-11.397,-1.51367l0.26367,-1.98242l11.397,1.51367l-0.26367,1.98242zm-15.19629,-2.01855l-11.397,-1.51465l0.26367,-1.98242l11.397,1.51465l-0.26367,1.98242z" fill="#3f3d56" id="svg_10" transform="translate(-214.84928 -124.57498)"/>
  <polygon fill="#3f3d56" id="svg_11" points="350.828 526.876 348.829 526.82 349.032 519.712 356.08 520.649 355.816 522.631 350.968 521.988 350.828 526.876"/>
  <path d="m564.1481,704.99338l-1.999,-0.05664l0.38232,-13.38575l1.999,0.05665l-0.38232,13.38574zm0.50977,-17.84766l-1.999,-0.05664l0.38232,-13.38574l1.999,0.05664l-0.38232,13.38574zm0.50976,-17.84765l-1.999,-0.05665l0.38233,-13.38574l1.999,0.05664l-0.38233,13.38575z" fill="#3f3d56" id="svg_12" transform="translate(-214.84928 -124.57498)"/>
  <polygon fill="#3f3d56" id="svg_13" points="346.969 591.933 347.172 584.824 349.171 584.88 349.031 589.767 353.904 589.388 354.06 591.382 346.969 591.933"/>
  <path d="m572.736,715.66037l-0.15527,-1.99414l11.48193,-0.89258l0.15528,1.99414l-11.48194,0.89258zm15.30909,-1.18945l-0.15528,-1.99414l11.48194,-0.89258l0.15527,1.99414l-11.48193,0.89258zm15.30908,-1.18946l-0.15528,-1.99414l11.48243,-0.89258l0.15429,1.99415l-11.48144,0.89257zm15.30859,-1.18945l-0.1543,-1.99414l11.48145,-0.89258l0.1543,1.99414l-11.48145,0.89258zm15.3086,-1.18945l-0.1543,-1.99414l11.48242,-0.89258l0.1543,1.99414l-11.48242,0.89258zm15.30957,-1.18946l-0.1543,-1.99414l11.48144,-0.89257l0.1543,1.99414l-11.48144,0.89257zm15.30859,-1.18945l-0.1543,-1.99414l11.48242,-0.89258l0.1543,1.99414l-11.48242,0.89258zm15.30957,-1.18945l-0.1543,-1.99414l11.48145,-0.89258l0.1543,1.99414l-11.48145,0.89258zm15.30859,-1.18946l-0.15429,-1.99414l11.48242,-0.89257l0.1543,1.99414l-11.48243,0.89257zm15.30957,-1.18945l-0.15429,-1.99414l11.48144,-0.89258l0.1543,1.99414l-11.48145,0.89258zm15.3086,-1.18945l-0.1543,-1.99414l11.48242,-0.89258l0.1543,1.99414l-11.48242,0.89258zm15.30957,-1.18945l-0.1543,-1.99415l11.48145,-0.89257l0.15429,1.99414l-11.48144,0.89258z" fill="#3f3d56" id="svg_14" transform="translate(-214.84928 -124.57498)"/>
  <polygon fill="#3f3d56" id="svg_15" points="541.595 576.812 541.44 574.818 545.752 574.483 543.409 570.849 545.091 569.765 549.248 576.217 541.595 576.812"/>
  <path d="m755.75845,691.54416l-7.5,-11.6377l1.68165,-1.084l7.5,11.63769l-1.68165,1.08401zm-10,-15.5166l-7.5,-11.6377l1.68165,-1.084l7.5,11.63769l-1.68165,1.08401z" fill="#3f3d56" id="svg_16" transform="translate(-214.84928 -124.57498)"/>
  <circle cx="504" cy="551.85004" fill="#00b0ff" id="svg_17" r="68"/>
  <polygon fill="#3f3d56" id="svg_18" points="560 630.85 460.5 454.35 438.5 476.35 536.5 630.35 560 630.85"/>
  <polygon fill="#3f3d56" id="svg_19" points="258.5 626.35 482 399.85 500.5 436.35 288.5 636.35 258.5 626.35"/>
  <circle cx="349.5" cy="557.35004" fill="#3f3d56" id="svg_20" r="45"/>
  <path d="m504.34928,694.925a1.001,1.001 0 0 0 -1,1l0,8a1.001,1.001 0 0 0 1,1l25,0a1.001,1.001 0 0 0 1,-1l0,-8a1.001,1.001 0 0 0 -1,-1l-25,0z" fill="#00b0ff" id="svg_21" transform="translate(-214.84928 -124.57498)"/>
  <path d="m561.84928,583.425a1.001,1.001 0 0 0 -1,1l0,8a1.001,1.001 0 0 0 1,1l25,0a1.001,1.001 0 0 0 1,-1l0,-8a1.001,1.001 0 0 0 -1,-1l-25,0z" fill="#00b0ff" id="svg_22" transform="translate(-214.84928 -124.57498)"/>
  <polygon fill="#3f3d56" id="svg_23" points="468.5 442.35 442.5 442.35 442.5 422.35 452.5 418.35 468.5 430.35 468.5 442.35"/>
  <rect fill="#3f3d56" height="12" id="svg_24" transform="translate(-383.87489 210.67371) rotate(-25.31588)" width="3" x="660.34928" y="537.92502"/>
  <path d="m663.51431,524.88058a0.99073,0.99073 0 0 0 -0.53808,0.15918l-17.66309,11.35987a1.001,1.001 0 0 0 -0.2998,1.38183l4.32715,6.72852a1.00071,1.00071 0 0 0 1.38183,0.30029l17.66309,-11.35986l0,0.00049a1.00171,1.00171 0 0 0 0.2998,-1.38233l-4.32715,-6.72851a0.99406,0.99406 0 0 0 -0.6289,-0.436a1.00559,1.00559 0 0 0 -0.21485,-0.02348z" fill="#00b0ff" id="svg_25" transform="translate(-214.84928 -124.57498)"/>
  <path d="m703.3493,564.925l0,0l-20.5,-99.5l24,-4l16.36394,80.15542a18.943,18.943 0 0 1 -19.86394,23.34458z" fill="#3f3d56" id="svg_26" transform="translate(-214.84928 -124.57498)"/>
  <path d="m778.88078,445.82013l-23.74151,-1.69583a2,2 0 0 1 -1.69914,-2.7749l34.48634,-81.42609a2,2 0 0 1 1.49,-1.18887l23.41745,-4.18169a2,2 0 0 1 2.21407,2.69766l-34.16223,87.30359a2,2 0 0 1 -2.00498,1.26613z" fill="#3f3d56" id="svg_27" transform="translate(-214.84928 -124.57498)"/>
  <polygon fill="#00b0ff" id="svg_28" points="543.5 313.35 562.5 315.35 593.5 237.35 573.5 240.35 543.5 313.35"/>
  <polygon fill="#3f3d56" id="svg_29" points="336.5 527.35 311.5 552.35 275.5 395.35 295.5 398.35 336.5 527.35"/>
  <path d="m522.21516,522.68706l-4.31816,-1.29545a60.41115,60.41115 0 0 1 -26.97938,5.07729a7.73239,7.73239 0 0 1 -7.41086,-7.7685l0,0a7.77536,7.77536 0 0 1 7.77536,-7.77536l37.71724,0a3.84992,3.84992 0 0 1 3.84992,3.84992l0,0a8.26049,8.26049 0 0 1 -10.63412,7.9121z" fill="#3f3d56" id="svg_30" transform="translate(-214.84928 -124.57498)"/>
  <path d="m761.11783,424.50363a4.39372,4.39372 0 0 0 -2.67285,0.90137l-30.70117,23.47705l-34.36621,4.48242c-5.917,0.772 -10.01465,7.2085 -10.52832,13.06055l40.45312,-5.61768a27.16006,27.16006 0 0 0 15.19434,-6.521l25.50195,-22.05567a4.39754,4.39754 0 0 0 -2.88086,-7.72705l0,0.00001z" fill="#3f3d56" id="svg_31" transform="translate(-214.84928 -124.57498)"/>
  <path d="m746.11783,409.50363a4.39372,4.39372 0 0 0 -2.67285,0.90137l-30.70117,23.47705l-34.36621,4.48242c-5.917,0.772 -10.01465,7.2085 -10.52832,13.06055l40.45312,-5.61768a27.16006,27.16006 0 0 0 15.19434,-6.521l25.50195,-22.05567a4.39754,4.39754 0 0 0 -2.88086,-7.72705l0,0.00001z" fill="#3f3d56" id="svg_32" transform="translate(-214.84928 -124.57498)"/>
  <path d="m764.84961,469.9248a45.69581,45.69581 0 0 1 -36.71289,-18.61718l4.03125,-2.957a40.50175,40.50175 0 1 0 63.04394,-50.72852l3.74805,-3.31055a45.50091,45.50091 0 0 1 -34.11035,75.61328l0,-0.00003z" fill="#3f3d56" id="svg_33" transform="translate(-214.84928 -124.57498)"/>
  <rect fill="#3f3d56" height="25" id="svg_34" width="354" x="231" y="625.85004"/>
  <path d="m713.09656,456.6261l0,0a10.18779,10.18779 0 0 0 1.3916,-18.23454l-21.13888,-12.46656l-15,8l24.31162,20.95829a10.18779,10.18779 0 0 0 10.43566,1.74281z" fill="#ffb9b9" id="svg_35" transform="translate(-214.84928 -124.57498)"/>
  <path d="m547.34928,544.925l14,8l86.44745,-63.63076a27.85052,27.85052 0 0 0 11.83683,-18.91318l0,0a27.94167,27.94167 0 0 0 -10.08083,-25.7766c-19.09112,-15.50607 -42.68561,-29.57057 -67.70346,-43.17943l-37,18c15.24829,31.26617 32.175,57.04474 57,57l-54.49999,68.49997z" fill="#00b0ff" id="svg_36" transform="translate(-214.84928 -124.57498)"/>
  <path d="m541.24647,565.295c11.61559,11.76791 26.91121,20.18759 43.99575,26.97972a6.69787,6.69787 0 0 0 7.51557,-1.82588l0,0a6.69441,6.69441 0 0 0 -0.24922,-9.072l-11.07453,-11.369l-6.69114,-23.83116c-14.3684,7.10225 -23.78973,5.51252 -25.6472,-9.36705l-9.0567,12.35062a12.46738,12.46738 0 0 0 1.20747,16.13475z" fill="#2f2e41" id="svg_37" transform="translate(-214.84928 -124.57498)"/>
  <path d="m502.34928,670.925l21,1l48,-247l-82.5,-26.5c-8.23685,30.79541 3.99267,81.20257 25.5,140.5l-12,132z" fill="#00b0ff" id="svg_38" transform="translate(-214.84928 -124.57498)"/>
  <circle cx="449" cy="105.85004" fill="#ffb9b9" id="svg_39" r="33"/>
  <polygon fill="#ffb9b9" id="svg_40" points="388.5 146.35 409.5 161.35 441.5 129.35 425.5 109.35 388.5 146.35"/>
  <path d="m485.34928,400.925c25.89825,21.10455 54.17919,34.97693 89,29c10.52213,-16.82209 18.29108,-52.25879 31.5,-67.5c28.84538,-33.28345 43.15165,-62.95014 34,-90c-8.89618,-5.816 -8.5047,-5.8064 -15,-25c-50.87684,9.41265 -100.13111,66.845 -139.5,153.5z" fill="#e6e6e6" id="svg_41" transform="translate(-214.84928 -124.57498)"/>
  <path d="m502.01324,691.5052c14.9478,7.06888 32.20363,9.73025 50.58148,10.24912a6.69788,6.69788 0 0 0 6.43309,-4.29338l0,0a6.69441,6.69441 0 0 0 -3.34636,-8.43594l-14.30271,-6.87979l-14.46064,-20.08943c-11.05991,11.60048 -20.45486,13.33933 -27.30422,0l-4.2701,14.70812a12.46735,12.46735 0 0 0 6.66946,14.7413z" fill="#2f2e41" id="svg_42" transform="translate(-214.84928 -124.57498)"/>
  <path d="m676.34928,440.925l19,-14l-42,-74l-12.14969,-65.60829a18.81832,18.81832 0 0 0 -18.50372,-15.39171l0,0a18.81832,18.81832 0 0 0 -18.21094,23.56075l18.86435,72.43925l53,73z" fill="#e6e6e6" id="svg_43" transform="translate(-214.84928 -124.57498)"/>
  <rect fill="#3f3d56" height="60" id="svg_44" width="11" x="355" y="467.85004"/>
  <path d="m689.96913,220.85418a12.15211,12.15211 0 0 0 10.72753,4.28654c3.97236,-0.61923 7.50788,-4.00777 7.76214,-8.02c0.21954,-3.46474 -1.817,-6.64247 -3.954,-9.3784a76.02955,76.02955 0 0 0 -16.60985,-15.67969c-3.00151,-2.07795 -6.31336,-3.99085 -9.95711,-4.21488c-1.80292,-0.11085 -3.60978,0.19994 -5.41441,0.12238c-3.31827,-0.14258 -6.42792,-1.57847 -9.66489,-2.32218a23.77775,23.77775 0 0 0 -19.309,4.09142a28.651,28.651 0 0 0 -4.91809,4.79389a36.93227,36.93227 0 0 0 -7.76576,16.88814c-1.73992,9.82683 0.43206,20.60434 -4.29013,29.39613c5.54093,-0.51744 9.98318,-4.74231 15.24715,-6.54817a18.22945,18.22945 0 0 1 12.02739,0.10722a5.79481,5.79481 0 0 0 3.24482,0.60684a4.99254,4.99254 0 0 0 2.32073,-1.6968l10.06553,-10.95218c2.04848,-2.22892 4.37544,-4.60362 7.387,-4.91222a11.66222,11.66222 0 0 1 5.22417,1.03624a78.79971,78.79971 0 0 1 11.67145,5.54606" fill="#2f2e41" id="svg_45" transform="translate(-214.84928 -124.57498)"/>
  <polygon fill="#3f3d56" id="svg_46" points="456 324.85 453 326.85 473 346.85 485 335.85 465 319.85 456 324.85"/>
 </g>
</svg>