<?xml version="1.0"?>
<svg width="676" height="676" xmlns="http://www.w3.org/2000/svg" xmlns:svg="http://www.w3.org/2000/svg" xmlns:se="http://svg-edit.googlecode.com" data-name="Layer 1">
 <title>female_avatar</title>
 <g class="layer">
  <title>Layer 1</title>
  <path d="m676,338a337.10014,337.10014 0 0 1 -24.55,126.7c-0.04,0.09 -0.07,0.17 -0.11,0.26l0,0.01a336.51307,336.51307 0 0 1 -42.79,75.64q-5.055,6.75 -10.43,13.22c-1.31,1.58 -2.64,3.15 -3.97,4.7q-10.275,11.925 -21.62,22.85q-2.64,2.54994 -5.34,5.04c-0.42,0.39 -0.84,0.77 -1.26,1.16a337.81887,337.81887 0 0 1 -27.65,22.7q-9.675,7.155 -19.86,13.59q-2.235,1.425 -4.5,2.8q-3.93,2.4 -7.93,4.69q-5.22,3 -10.57,5.81c-1.44,0.77 -2.88995,1.51 -4.34,2.25c-2.12,1.09 -4.25,2.14 -6.4,3.17c-0.37,0.18 -0.74,0.36 -1.11,0.53c-1.4,0.68 -2.82,1.34 -4.24,2a334.89638,334.89638 0 0 1 -57.46,20.39c-0.11,0.03 -0.21,0.05 -0.32,0.08c-1.29,0.33 -2.59,0.65 -3.89,0.96c-0.97,0.24 -1.95,0.47 -2.93,0.69a2.48782,2.48782 0 0 1 -0.37,0.09c-2.01,0.47 -4.02,0.92 -6.05,1.33c-1.14,0.24 -2.28,0.48 -3.42,0.71c-0.69,0.15 -1.39,0.28 -2.08,0.41c-0.87,0.17 -1.73,0.33 -2.6,0.5c-0.48,0.1 -0.96,0.18 -1.45,0.26c-1.1,0.2 -2.2,0.4 -3.29,0.59c-1.86,0.32 -3.74,0.63 -5.61,0.91c-1.36,0.21 -2.71,0.41 -4.07,0.6c-1.6,0.23 -3.2,0.44 -4.81,0.64c-0.44,0.07 -0.88,0.12 -1.32,0.17q-0.85491,0.10492 -1.71,0.21c-1.15,0.14 -2.3,0.27 -3.46,0.39c-0.6,0.07 -1.19,0.13 -1.79,0.19q-1.71,0.18 -3.42,0.33c-1.47,0.13995 -2.94,0.26 -4.42,0.38c-1.8,0.14 -3.59,0.27 -5.4,0.38c-1.16,0.07 -2.32,0.14 -3.49,0.2c-2.98,0.16 -5.96,0.27 -8.96,0.35c-1.49,0.04 -2.99,0.07 -4.49,0.09l-0.03,0c-1.49,0.02 -2.99,0.03 -4.49,0.03a339.151,339.151 0 0 1 -45.45,-3.04q-16.575,-2.22 -32.62,-6.02c-0.43,-0.1 -0.86,-0.2 -1.28,-0.31c-1.08,-0.25 -2.15,-0.52 -3.22,-0.79c-0.95,-0.24 -1.89,-0.49 -2.84,-0.74a335.35735,335.35735 0 0 1 -70.6,-27.19c-0.11,-0.06 -0.23,-0.12 -0.34,-0.18c-0.65,-0.34 -1.29,-0.67 -1.93,-1.02q-2.115,-1.11 -4.21,-2.26q-11.925,-6.55507 -23.24,-14.02q-2.91,-1.905 -5.76,-3.87c-0.61,-0.42 -1.21,-0.84 -1.81,-1.26c-0.63,-0.44 -1.26,-0.88 -1.88,-1.32q-2.475,-1.755 -4.92,-3.55q-10.125,-7.44 -19.65,-15.61a339.74031,339.74031 0 0 1 -59.16,-65.85q-8.775,-12.78 -16.38,-26.38a336.38981,336.38981 0 0 1 -42.71,-164.59c0,-186.67 151.33,-338 338,-338s338,151.33 338,338z" id="svg_1"/>
  <path d="m712.28551,338.52139c6.38046,35.99732 -7.70456,68.59225 -7.70456,68.59225s-24.42979,-25.76825 -30.81025,-61.76557s7.70457,-68.59225 7.70457,-68.59225s24.42979,25.76825 30.81024,61.76557z" id="svg_6" opacity="0.2" transform="translate(-262 -112)"/>
  <path d="m701.96,648.27l1.22,0.63c-0.11994,1.3 -0.41,2.1 -1.22,-0.63z" fill="#2f2e41" id="svg_9" transform="translate(-262 -112)"/>
  <path d="m703.57007,648.69c0.01,0.14 0.02991,0.29 0.03992,0.43l-0.43006,-0.22c0.01,-0.13 0.02,-0.27 0.04,-0.41c0.10014,-1.75 -0.01998,-3.82 0.35014,0.2z" fill="#2f2e41" id="svg_10" transform="translate(-262 -112)"/>
  <circle cx="311.68289" cy="324.64092" fill="#2f2e41" id="svg_11" r="164.20902" transform="matrix(1 0 0 1 0 0)"/>
  <circle cx="325.20044" cy="382.71266" fill="#d0cde1" id="svg_12" r="99.44441"/>
  <path d="m552.27,573.31l-0.12,0.03l-23.13,5.55l-48.16,11.56l-6.57,1.58l-73.24,17.57l-6.22,1.5l-177.69,42.64a333.63858,333.63858 0 0 1 -35.15,-15.83c-0.11,-0.06 -0.23,-0.12 -0.34,-0.18c-0.65,-0.34 -1.29,-0.67 -1.93,-1.02q-2.115,-1.11 -4.21,-2.26q-11.925,-6.55507 -23.24,-14.02q-2.91,-1.905 -5.76,-3.87c-0.61,-0.42 -1.21,-0.84 -1.81,-1.26c-0.63,-0.44 -1.26,-0.88 -1.88,-1.32q-2.475,-1.755 -4.92,-3.55c17.26,-31.37 58.36,-52.22 99.46,-63.63c31.02,-8.62 37.84,-36.95 37.25,-62.16a146.9523,146.9523 0 0 0 -1.46,-17.18a167.47773,167.47773 0 0 0 -5.96,-26.74l99.45,3.32l10.26,23.64a53.49156,53.49156 0 0 0 -0.27,7.82c0.78,19.39 12.75,31.93 27.52,40.02c1.92,1.05005 3.89,2.03 5.89,2.94c24.22,11.01 52.73,11.76 52.73,11.76a101.52,101.52 0 0 1 26.09,0.49q3.15,0.48 6.12,1.15a88.13944,88.13944 0 0 1 32.11,14.37a91.60126,91.60126 0 0 1 10.41,8.63a82.67563,82.67563 0 0 1 14.77,18.45z" fill="#d0cde1" id="svg_13"/>
  <path d="m829.19,698.42c-0.42,0.39 -0.84,0.77 -1.26,1.16a337.81887,337.81887 0 0 1 -27.65,22.7q-9.675,7.155 -19.86,13.59q-2.235,1.425 -4.5,2.8q-3.93,2.4 -7.93,4.69q-5.22,3 -10.57,5.81c-1.44,0.77 -2.88995,1.51 -4.34,2.25c-2.12,1.09 -4.25,2.14 -6.4,3.17c-0.37,0.18 -0.74,0.36 -1.11,0.53l-4.23,-3.51l49.68,-60.72l9.99,-12.21s3.99,0 13.14,6.66a130.9934,130.9934 0 0 1 14.3,12.34c0.24,0.25 0.49,0.49 0.74,0.74z" fill="#d0cde1" id="svg_14" transform="translate(-262 -112)"/>
  <path d="m828.49,697.74a11.39223,11.39223 0 0 1 -0.56,1.84a337.81887,337.81887 0 0 1 -27.65,22.7a117.95015,117.95015 0 0 1 -25.79,6.13s0.75,3.76 1.43,10.26q-3.93,2.4 -7.93,4.69q-5.22,3 -10.57,5.81c-1.44,0.77 -2.88995,1.51 -4.34,2.25c-2.12,1.09 -4.25,2.14 -6.4,3.17c-0.37,0.18 -0.74,0.36 -1.11,0.53c-1.4,0.68 -2.82,1.34 -4.24,2a334.89638,334.89638 0 0 1 -57.46,20.39c-0.11,0.03 -0.21,0.05 -0.32,0.08c-1.29,0.33 -2.59,0.65 -3.89,0.96c-0.97,0.24 -1.95,0.47 -2.93,0.69a2.48782,2.48782 0 0 1 -0.37,0.09c-2.01,0.47 -4.02,0.92 -6.05,1.33c-1.14,0.24 -2.28,0.48 -3.42,0.71c-0.69,0.15 -1.39,0.28 -2.08,0.41c-0.87,0.17 -1.73,0.33 -2.6,0.5c-0.48,0.1 -0.96,0.18 -1.45,0.26c-1.1,0.2 -2.2,0.4 -3.29,0.59c-1.86,0.32 -3.74,0.63 -5.61,0.91c-1.36,0.21 -2.71,0.41 -4.07,0.6c-1.6,0.23 -3.2,0.44 -4.81,0.64c-0.44,0.07 -0.88,0.12 -1.32,0.17q-0.85491,0.10492 -1.71,0.21c-1.15,0.14 -2.3,0.27 -3.46,0.39c-0.6,0.07 -1.19,0.13 -1.79,0.19q-1.71,0.18 -3.42,0.33c-1.47,0.13995 -2.94,0.26 -4.42,0.38c-1.8,0.14 -3.59,0.27 -5.4,0.38c-1.16,0.07 -2.32,0.14 -3.49,0.2c-2.98,0.16 -5.96,0.27 -8.96,0.35c-1.49,0.04 -2.99,0.07 -4.49,0.09l-0.03,0c-1.49,0.02 -2.99,0.03 -4.49,0.03a339.151,339.151 0 0 1 -45.45,-3.04q-16.575,-2.22 -32.62,-6.02c-0.43,-0.1 -0.86,-0.2 -1.28,-0.31c-1.08,-0.25 -2.15,-0.52 -3.22,-0.79c-0.95,-0.24 -1.89,-0.49 -2.84,-0.74a335.35735,335.35735 0 0 1 -70.6,-27.19c-0.11,-0.06 -0.23,-0.12 -0.34,-0.18c-0.65,-0.34 -1.29,-0.67 -1.93,-1.02c54.89,-12.79 141.63,-32.96 216.9,-50.24q3.165,-0.72 6.29,-1.44c27.8,-6.38 53.84,-12.32 75.87006,-17.29q3.42,-0.765 6.69995,-1.5c23.67,-5.32 42.05005,-9.36 52.02,-11.38a81.48836,81.48836 0 0 1 8.14,-1.43l20.81,32.25l0.03999,0.06z" fill="#2f2e41" id="svg_15" transform="translate(-262 -112)"/>
  <circle cx="161.4491" cy="205.85142" fill="#2f2e41" id="svg_16" r="48.91333"/>
  <circle cx="461.91668" cy="191.87618" fill="#2f2e41" id="svg_17" r="48.91333" transform="matrix(1 0 0 1 0 0)"/>
  <path d="m671.50954,282.91333a48.91227,48.91227 0 0 1 43.67262,-48.62417a48.91338,48.91338 0 1 0 0,97.24833a48.91227,48.91227 0 0 1 -43.67262,-48.62416z" fill="#2f2e41" id="svg_18" transform="translate(-262 -112)"/>
  <path d="m368.796,357.41647a48.91227,48.91227 0 0 1 -2.83554,-65.296a48.91337,48.91337 0 1 0 68.06011,69.46264a48.91226,48.91226 0 0 1 -65.22457,-4.16664z" fill="#2f2e41" id="svg_19" transform="translate(-262 -112)"/>
  <path d="m573.68289,359.77712c-57.88732,0 -104.81427,27.37407 -104.81427,61.14166c0,15.10906 9.43269,28.91775 25.003,39.58556l20.1779,-14.62031l-5.48723,22.90446c2.27682,1.05513 4.60162,2.07636 7.02643,3.02019l30.1437,-35.16776l0,43.20369a175.95757,175.95757 0 0 0 27.95047,2.21583c57.88732,0 104.81427,-27.37407 104.81427,-61.14166s-46.92695,-61.14166 -104.81427,-61.14166z" fill="#2f2e41" id="svg_20" transform="translate(-262 -112)"/>
  <path d="m675.00335,303.87618s-7.59666,34.93809 39.87428,48.91333l-39.87428,-48.91333z" fill="#2f2e41" id="svg_21" transform="translate(-262 -112)"/>
  <path d="m468.86862,310.23519s17.469,39.06051 -34.93809,56.52955l34.93809,-56.52955z" fill="#2f2e41" id="svg_22" transform="translate(-262 -112)"/>
  <ellipse cx="489.41344" cy="514.60154" fill="#d0cde1" id="svg_23" rx="8.28703" ry="19.88888" transform="translate(-382.60837 38.98959) rotate(-15.63946)"/>
  <ellipse cx="688.30226" cy="498.02747" fill="#d0cde1" id="svg_24" rx="19.88888" ry="8.28703" transform="translate(-113.09381 1042.41397) rotate(-86.47577)"/>
  <path clip-rule="evenodd" d="m462.632007,57.067001c-9.765,0 -16.314,9.101 -16.314,17.576c0,17.204 27.187,31.29 27.682,31.29c0.495,0 27.682,-14.086 27.682,-31.29c0,-8.475 -6.548,-17.576 -16.314,-17.576c-5.582,0 -9.249,2.764 -11.368,5.226c-2.119,-2.462 -5.785,-5.226 -11.368,-5.226z" fill="#fff" fill-rule="evenodd" id="svg_25" transform="matrix(1 0 0 1 0 0)"/>
  <path clip-rule="evenodd" d="m234.989652,80.488409l3.799,12.222l12.223,3.8a2.792,2.792 0 0 1 0.784,4.949l-10.451,7.39l0.164,12.799a2.796,2.796 0 0 1 -1.525,2.525a2.797,2.797 0 0 1 -2.94,-0.251l-10.258,-7.655l-12.121,4.111a2.795,2.795 0 0 1 -3.543,-3.543l4.11,-12.122l-7.655,-10.258a2.793,2.793 0 0 1 2.275,-4.464l12.798,0.163l7.391,-10.45a2.793,2.793 0 0 1 4.949,0.784z" fill="#E1E4E5" fill-rule="evenodd" id="svg_26" stroke="#E1E4E5" stroke-linecap="round" stroke-linejoin="round" stroke-width="1.5" transform="matrix(1 0 0 1 0 0)"/>
 </g>
</svg>