<?xml version="1.0"?>
<svg xmlns="http://www.w3.org/2000/svg" xmlns:svg="http://www.w3.org/2000/svg" xmlns:se="http://svg-edit.googlecode.com" data-name="Layer 1">
 <title>male_avatar</title>
 <g class="layer">
  <title>Layer 1</title>
  <path d="m678,337a336.852,336.852 0 0 1 -27.22,133.1l-1.12,2.58a338.559,338.559 0 0 1 -368.31,197.25q-3.045,-0.54 -6.08,-1.12a334.98111,334.98111 0 0 1 -61.14,-18.03q-4.815,-1.935 -9.56,-4.01c-2.16,-0.94 -4.32,-1.91 -6.46,-2.91a338.41424,338.41424 0 0 1 -196.11,-306.86c0,-186.67 151.33,-338 338,-338s338,151.33 338,338z" id="svg_1"/>
  <path d="m483.71449,353.52139c-6.38046,35.99732 7.70456,68.59225 7.70456,68.59225s24.42979,-25.76825 30.81025,-61.76557s-7.70457,-68.59225 -7.70457,-68.59225s-24.42979,25.76825 -30.81024,61.76557z" id="svg_6" opacity="0.2" transform="translate(-262 -112)"/>
  <circle cx="328.30608" cy="266.0788" fill="#d0cde1" id="svg_9" r="131.770142"/>
  <path d="m547.83337,493.96531s16.47127,78.23852 16.47127,86.47415s78.23852,45.296 78.23852,45.296l70.00284,-12.35346l24.707,-74.12071s-41.17817,-61.76725 -41.17817,-86.47415l-148.24146,41.17817z" fill="#d0cde1" id="svg_10" transform="translate(-262 -112)"/>
  <path d="m910.78,583.1l-1.12,2.58a338.559,338.559 0 0 1 -368.31,197.25q-3.045,-0.54 -6.08,-1.12a334.98111,334.98111 0 0 1 -61.14,-18.03q-4.815,-1.935 -9.56,-4.01c-2.16,-0.94 -4.32,-1.91 -6.46,-2.91a337.59273,337.59273 0 0 1 -55.25,-32.28l-15.62,-45.31l8.78,-6.69995l18.06,-13.79l19.27,-14.71l5.01,-3.83l75.61,-57.72l5.58,-4.26l39.3,-30l0.01,-0.01s42.5,69.25 104.27,48.66s60.42,-79.63 60.42,-79.63l187.23,65.81995z" fill="#2f2e41" id="svg_11" transform="translate(-262 -112)"/>
  <path d="m485.03538,286.916s41.83653,-90.64581 122.02321,-69.72755s125.50958,52.29566 128.996,83.67306s-1.74319,78.44348 -1.74319,78.44348s-8.716,-64.498 -64.498,-50.55247s-142.94147,3.48638 -142.94147,3.48638l-13.94553,125.50959s-15.6887,-22.66145 -33.12058,-8.71594s-50.55247,-134.22555 5.22956,-162.11655z" fill="#2f2e41" id="svg_12" transform="translate(-262 -112)"/>
  <path d="m474.13,763.78q-4.815,-1.935 -9.56,-4.01c-2.16,-0.94 -4.32,-1.91 -6.46,-2.91a338.835,338.835 0 0 1 -87.59,-58.7c9.19,-12.52 16.72,-18.89 16.72,-18.89l61.77,0l9.26,31.14l15.86,53.37z" fill="#2f2e41" id="svg_13" transform="translate(-262 -112)"/>
  <path d="m856.67,576.32l52.99,9.36a337.94434,337.94434 0 0 1 -56.76,88.57l3.77,-97.93z" fill="#2f2e41" id="svg_14" transform="translate(-262 -112)"/>
  <path d="0" fill="#E1E4E5" id="svg_15"/>
  <path clip-rule="evenodd" d="m96.632007,343.067001c-9.765,0 -16.314,9.101 -16.314,17.576c0,17.204 27.187,31.29 27.682,31.29c0.495,0 27.682,-14.086 27.682,-31.29c0,-8.475 -6.548,-17.576 -16.314,-17.576c-5.582,0 -9.249,2.764 -11.368,5.226c-2.119,-2.462 -5.785,-5.226 -11.368,-5.226z" fill="#fff" fill-rule="evenodd" id="svg_17" transform="matrix(1 0 0 1 0 0)"/>
  <circle cx="35.5" cy="457" fill="#E1E4E5" id="svg_18" r="10" transform="matrix(1 0 0 1 0 0) matrix(0 -1 -1 0 588 271)"/>
  <circle cx="-167.5" cy="389" fill="#E1E4E5" id="svg_19" r="10" transform="matrix(1 0 0 1 0 0) matrix(0 -1 -1 0 588 271)"/>
 </g>
</svg>