<?xml version="1.0"?>
<svg xmlns="http://www.w3.org/2000/svg" xmlns:svg="http://www.w3.org/2000/svg" xmlns:se="http://svg-edit.googlecode.com" data-name="Layer 1">
 <defs>
  <linearGradient id="4cde2cde-bd85-47c9-bab2-0e38d604e335" x1="0.500485" x2="0.500485" y1="1.000002" y2="-0.000014">
   <stop offset="0" stop-color="gray" stop-opacity="0.25"/>
   <stop offset="0.54" stop-color="gray" stop-opacity="0.12"/>
   <stop offset="1" stop-color="gray" stop-opacity="0.1"/>
  </linearGradient>
 </defs>
 <title>sleep analysis</title>
 <g class="layer">
  <title>Layer 1</title>
  <path d="m198.7,665.26s-53.44,-69.06 -48.56,-137.14c2,-28.57 -4.71,-57.11 -20.21,-81.21a222.5,222.5 0 0 0 -25.11,-32" fill="none" id="svg_12" stroke="#535461" stroke-miterlimit="10" stroke-width="2" transform="translate(-71.39 -32.23)"/>
  <path d="m107.62,372c3.73,9.56 -2.76,44.05 -2.76,44.05s-28.13,-20.99 -31.86,-30.55a18.59,18.59 0 1 1 34.62,-13.5z" fill="#00b0ff" id="svg_13" transform="translate(-71.39 -32.23)"/>
  <path d="m156.92,413.78c-2.06,10.06 -26.26,35.48 -26.26,35.48s-12.22,-32.9 -10.16,-43a18.59,18.59 0 1 1 36.41,7.47l0.01,0.05z" fill="#00b0ff" id="svg_14" transform="translate(-71.39 -32.23)"/>
  <path d="m191,504.78c-6.86,7.64 -40.57,17.37 -40.57,17.37s6.06,-34.57 12.91,-42.21a18.59,18.59 0 0 1 27.66,24.84z" fill="#00b0ff" id="svg_15" transform="translate(-71.39 -32.23)"/>
  <path d="m201.28,579.45c-5.47,8.69 -37.06,24 -37.06,24s0.13,-35.09 5.6,-43.78a18.59,18.59 0 1 1 31.46,19.8l0,-0.02z" fill="#00b0ff" id="svg_16" transform="translate(-71.39 -32.23)"/>
  <path d="m95,465.3c9.46,4 44.11,-1.58 44.11,-1.58s-20.18,-28.72 -29.64,-32.72a18.59,18.59 0 1 0 -14.47,34.3z" fill="#00b0ff" id="svg_17" transform="translate(-71.39 -32.23)"/>
  <path d="m108.16,552.47c10.22,1 41.61,-14.71 41.61,-14.71s-27.87,-21.32 -38.09,-22.3a18.59,18.59 0 1 0 -3.52,37l0,0.01z" fill="#00b0ff" id="svg_18" transform="translate(-71.39 -32.23)"/>
  <path d="m132.55,635.43c9.91,2.69 43.5,-7.47 43.5,-7.47s-23.87,-25.73 -33.78,-28.41a18.59,18.59 0 1 0 -9.72,35.88z" fill="#00b0ff" id="svg_19" transform="translate(-71.39 -32.23)"/>
  <path d="m36.230001,339.77c3.73,9.56 -2.76,44.05 -2.76,44.05s-28.13,-20.99 -31.86,-30.55a18.59,18.59 0 1 1 34.62,-13.5z" fill="#00B0FF" id="svg_20" opacity="0.25"/>
  <path d="m85.530001,381.55c-2.06,10.06 -26.26,35.48 -26.26,35.48s-12.22,-32.9 -10.16,-43a18.59,18.59 0 1 1 36.41,7.47l0.01,0.05z" fill="#00B0FF" id="svg_21" opacity="0.25"/>
  <path d="m191,504.78c-6.86,7.64 -40.57,17.37 -40.57,17.37s6.06,-34.57 12.91,-42.21a18.59,18.59 0 0 1 27.66,24.84z" id="svg_22" opacity="0.25" transform="translate(-71.39 -32.23)"/>
  <path d="m201.28,579.45c-5.47,8.69 -37.06,24 -37.06,24s0.13,-35.09 5.6,-43.78a18.59,18.59 0 1 1 31.46,19.8l0,-0.02z" id="svg_23" opacity="0.25" transform="translate(-71.39 -32.23)"/>
  <path d="m95,465.3c9.46,4 44.11,-1.58 44.11,-1.58s-20.18,-28.72 -29.64,-32.72a18.59,18.59 0 1 0 -14.47,34.3z" id="svg_24" opacity="0.25" transform="translate(-71.39 -32.23)"/>
  <path d="m108.16,552.47c10.22,1 41.61,-14.71 41.61,-14.71s-27.87,-21.32 -38.09,-22.3a18.59,18.59 0 1 0 -3.52,37l0,0.01z" id="svg_25" opacity="0.25" transform="translate(-71.39 -32.23)"/>
  <path d="m61.160001,603.2c9.91,2.69 43.5,-7.47 43.5,-7.47s-23.87,-25.73 -33.78,-28.41a18.59,18.59 0 1 0 -9.72,35.88z" fill="#00B0FF" id="svg_26" opacity="0.25"/>
  <polygon fill="#dbaca2" id="svg_28" points="123.13999938964844,291.010009765625 123.13999938964844,558.47998046875 479.0199890136719,489.3500061035156 472.2200012207031,284.2099914550781 123.13999938964844,291.010009765625 "/>
  <polygon fill="#e8c2b8" id="svg_29" points="789.11 611.37 789.11 699.77 412.83 809.71 408.99 807.72 111.36 653.3 111.36 287.79 479.7 275.89 481.97 478.76 467.23 483.3 461.56 293.55 137.42 304.79 135.16 579.63 417.36 703.17 417.58 703.12 789.11 611.37"/>
  <polygon id="svg_30" opacity="0.1" points="789.11 611.37 789.11 699.77 412.83 809.71 408.99 807.72 417.58 703.12 789.11 611.37"/>
  <path d="m406.87,515.24s-182.18,18.18 -199.87,44.51s-0.15,58.63 -0.15,58.63l281.64,122.4l381.94,-98.6s-10.2,-69.14 -41.93,-77.07s-284.5,-62.33 -284.5,-62.33s-102,-6.24 -137.13,12.46z" fill="#ebecf0" id="svg_31" transform="translate(-71.39 -32.23)"/>
  <path d="m135.440001,527.77l287.31,99.17s306.45,-92.92 349.86,-84.17c0,0 -214.37,-76.73 -300,-73.39c-68.24,2.66 -139.69,13.86 -139.69,13.86s-189.54,19.04 -197.48,44.53z" fill="#f8f9fa" id="svg_32"/>
  <path d="m577.490001,591.57l0,0l0.07,-0.1l0,-0.06l0.05,-0.1l0,-0.07l0,-0.1l0,-0.07l0,-0.11l0,-0.07l0,-0.13l0,-0.06q0,-0.09 0,-0.18l0,0c0,-0.07 0,-0.14 0,-0.21s0,0 0,-0.07s0,-0.1 0,-0.15l0,-0.09l0,-0.15l0,-0.1l0,-0.15l0,-0.1l0,-0.16l0,-0.1l0,-0.17l0,-0.09l-0.08,-0.25l0,0l-0.1,-0.28l0,-0.09l-0.08,-0.2l0,-0.11l-0.08,-0.19l-0.05,-0.12l-0.08,-0.19l-0.06,-0.13l-0.09,-0.19l-0.06,-0.12l-0.11,-0.21l-0.06,-0.11l-0.15,-0.29l0,0l-0.18,-0.34l-0.06,-0.11l-0.13,-0.24l-0.07,-0.13l-0.13,-0.22l-0.08,-0.14l-0.13,-0.22l-0.22,-0.33l-0.14,-0.22l-0.09,-0.14l-0.15,-0.24l-0.08,-0.13l-0.2,-0.32l0,-0.06l-0.25,-0.38l-0.08,-0.11l-0.18,-0.27l-0.1,-0.14l-0.17,-0.24l-0.1,-0.15l-0.17,-0.24l-0.11,-0.16l-0.18,-0.2l-0.11,-0.15l-0.19,-0.26l-0.1,-0.13l-0.25,-0.34l0,-0.05l-0.29,-0.4l-0.1,-0.14l-0.19,-0.26l-0.13,-0.17l-0.18,-0.24l-0.13,-0.17l-0.18,-0.24l-0.13,-0.16l-0.19,-0.25l-0.13,-0.16l-0.2,-0.26l-0.12,-0.15l-0.24,-0.3l-0.08,-0.1l0,0c-0.9,-1.14 -1.83,-2.28 -2.76,-3.38a31,31 0 0 0 -21.08,-10.93c-0.83,-0.07 -1.7,-0.16 -2.58,-0.27l-0.37,0l-0.65,-0.09l-0.31,0l-1,-0.14l0,0l-0.95,-0.15l-0.33,-0.06l-0.67,-0.12l-0.4,-0.08l-0.61,-0.12l-0.43,-0.09l-0.58,-0.13l-0.44,-0.1l-0.58,-0.14l-0.45,-0.11l-0.57,-0.15l-0.45,-0.12l-0.57,-0.16l0,0c-3,-4.46 -7.56,-8.43 -12,-9.2a9,9 0 0 0 -3.67,0.19l-0.21,-0.23l-0.3,-0.34l-0.4,-0.51l-0.26,-0.34l-0.42,-0.59l-0.21,-0.29q-0.31,-0.45 -0.59,-0.92a8.94,8.94 0 0 0 -1.84,-0.59a165.3,165.3 0 0 0 26.09,-6.15a5.56,5.56 0 0 0 1.17,-0.61l0.18,-0.06c7.41,-2.7 16.51,-29 10.11,-32.68s-16.17,-34 -21.9,-49.53s-22.24,-17.18 -22.24,-17.18s-23.92,-18.53 -34.7,-16.51s-12.47,-14.15 -13.48,-14.82a1.22,1.22 0 0 1 -0.29,-0.35c-2.6,-4.07 -23.27,-9.5 -34.42,-12.18c-10.9,-7.9 -23.9,-14.03 -34.41,-16.56a23.56,23.56 0 0 0 -20.56,4.1c-22.08,1.12 -25.6,17.8 -25.6,17.8a16.55,16.55 0 0 0 1.16,6.66a26.81,26.81 0 0 1 -3.57,-0.19c2.56,-4.23 2.64,-9.67 4.55,-14.32c3.77,-9.2 14.17,-13.95 24,-15.19c5.73,-0.72 12,-0.72 16.52,-4.31a12.53,12.53 0 0 0 4.48,-7.41a2.66,2.66 0 0 0 -0.16,-1.9a2.71,2.71 0 0 0 -1.09,-0.88c-5.92,-3.16 -13.05,-2.34 -19.77,-2.49c-10.92,-0.24 -21.56,-3.23 -32.12,-6c-4.47,-1.17 -9.3,-2.3 -13.62,-0.64c-4.08,1.56 -6.86,5.28 -10.13,8.17c-13.4,11.82 -35.65,10.11 -47.57,23.43c-2.76,3.09 -4.83,7.28 -3.82,11.3c0.41,1.64 1.32,3.15 1.61,4.82c0.58,3.3 -1.3,6.46 -2.89,9.41s-3,6.53 -1.5,9.53c2.27,4.58 9.2,4.24 12.8,7.87c1.67,1.69 2.48,4.11 4.22,5.72c2.79,2.57 7.08,2.37 10.86,2c1.49,-0.14 3.72,-0.55 4.54,-1.86a25.93,25.93 0 0 0 40.81,-7a36.6,36.6 0 0 1 23,6.22a16.34,16.34 0 0 0 5.38,7.6c2.36,1.85 5.17,4.12 8,6.55c-7.17,1.89 -13.54,3.1 -13.54,3.1s-28.3,9.1 -28.3,15.16a7.49,7.49 0 0 0 1,3.11a12.39,12.39 0 0 0 -1.19,4.81c-7.81,-1.32 -14.06,-3.31 -17.29,-6.24c0,0 -0.92,-0.25 -2.34,-0.53c-1.9,-2.43 -7.48,-9.18 -10.8,-8.91c-2.21,0.18 -3,5.32 -3.28,9.92a4.29,4.29 0 0 0 -0.76,0.86c-3.37,5.05 2.7,15.16 6.74,16.85s26.28,1 41.44,12.13c6.72,4.93 18.27,5.88 29,5.42c-10.79,7.62 -25.9,19.33 -28,26.59c-1.13,3.85 -2.46,8.63 -2.38,13.54c-6.6,8.73 -16.59,27.16 8.11,36c20.36,7.27 75.56,6.34 114.89,4.56c18.3,3.23 33.41,6.48 39.75,9.59c0,0 15.16,2 21.23,5.73s17.18,2.7 17.18,2.7s21.56,3.71 26.28,8.42s12.8,-8.09 2.7,-14.15c-3.94,-2.36 -9.81,-6.25 -15.5,-10.51c7.31,0.86 13.76,1.8 17.86,2.76l0.41,0.09l0.13,0l0.26,0l0.15,0l0.22,0l0.14,0l0.21,0l1,0l0.26,0l0.08,0l0.16,0l0.09,0l0.13,0l0.08,0l0.12,0l0.08,0l0.11,-0.05l0.07,0l0.1,-0.07l0.05,0l0.13,-0.11l0,0l0.08,-0.24zm-93.07,-32.3s-2.84,-0.65 -7.08,-1.65l-8.42,-3.4s14.37,-4.52 27.68,-10.27c3.81,1.67 7.16,3 8,4.21a2.27,2.27 0 0 0 1.39,0.73c-5,1.24 -11.42,4.43 -18.95,11.79a16.78,16.78 0 0 1 -2.62,-1.41zm-101.74,-81.2l8.31,-3.86c1.81,1.54 3.75,3 5.65,4.42c-4.56,0.27 -10.69,0.57 -17.62,0.76c2.12,-0.71 3.66,-1.32 3.66,-1.32z" fill="url(#4cde2cde-bd85-47c9-bab2-0e38d604e335)" id="svg_33"/>
  <path d="m383.26,503.86s-7.26,-9.86 -11.21,-9.56s-3.3,16.82 -3.3,16.82l14.51,-7.26z" fill="#ffd5d8" id="svg_34" transform="translate(-71.39 -32.23)"/>
  <path d="m476.6,510.46s-77.18,6.27 -91.69,-6.93c0,0 -13.52,-3.63 -16.82,1.32s2.64,14.84 6.6,16.49s25.73,1 40.57,11.87s53.76,2 53.76,2l16.16,-6.27l-8.58,-18.48z" fill="#00B0FF" id="svg_35" transform="translate(-71.39 -32.23)"/>
  <path d="m476.6,510.46s-77.18,6.27 -91.69,-6.93c0,0 -13.52,-3.63 -16.82,1.32s2.64,14.84 6.6,16.49s25.73,1 40.57,11.87s53.76,2 53.76,2l16.16,-6.27l-8.58,-18.48z" id="svg_36" opacity="0.05" transform="translate(-71.39 -32.23)"/>
  <path d="m587.09,547.4s-16.49,-11.87 -50.46,3s-118.73,22.76 -118.73,22.76s-28.36,28.36 4,39.91s154.35,2 154.35,2s49.8,3.3 65.3,6.93c9.38,2.2 2,-8.42 -5.35,-17.14a30.29,30.29 0 0 0 -20.64,-10.7c-9.74,-0.83 -23.25,-3.89 -29.43,-14.05c0,0 -11.87,-5.94 -29.68,11.87l-17.18,-6.98s47.16,-14.84 48.81,-24.74s-0.99,-12.86 -0.99,-12.86z" fill="#ffd5d8" id="svg_37" transform="translate(-71.39 -32.23)"/>
  <path d="m587.09,547.4s-16.49,-11.87 -50.46,3s-118.73,22.76 -118.73,22.76s-28.36,28.36 4,39.91s154.35,2 154.35,2s49.8,3.3 65.3,6.93c8.22,1.92 3.55,-6 -2.64,-13.82a37.88,37.88 0 0 0 -25.4,-14.22c-9.5,-1.08 -21.62,-4.39 -27.37,-13.85c0,0 -11.87,-5.94 -29.68,11.87l-17.19,-6.98s47.16,-14.84 48.81,-24.74s-0.99,-12.86 -0.99,-12.86z" id="svg_38" opacity="0.05" transform="translate(-71.39 -32.23)"/>
  <path d="m587.42,500.57s-20.78,-33 -69.92,-4.29l-63,35s-35,22.1 -38.26,33.31s-8.25,30.34 26.06,37.6s114.12,16.49 130.94,24.74c0,0 14.84,2 20.78,5.61s16.82,2.64 16.82,2.64s21.11,3.63 25.73,8.25s12.53,-7.92 2.64,-13.85s-32.32,-21.77 -32,-28s-7.59,-17.24 -15.21,-18.58s-17.48,9.89 -17.48,9.89s-12.53,2 -20.12,-3c0,0 -38.92,-8.91 -42.88,-11.54s-31,-12.86 -31,-12.86s64,-0.66 82.78,-17.81c0,0 7.26,-5.28 13.19,-3.63c0.05,0.05 29.4,-11.16 10.93,-43.48z" fill="#ffd5d8" id="svg_39" transform="translate(-71.39 -32.23)"/>
  <path d="m400.41,438.56s18.8,13.19 33.31,0s6.28,40.57 6.28,40.57s-20.12,-26.72 -50.13,-9.23l10.54,-31.34z" fill="#ffd5d8" id="svg_40" transform="translate(-71.39 -32.23)"/>
  <path d="m400.41,438.56s18.8,13.19 33.31,0s6.28,40.57 6.28,40.57s-20.12,-26.72 -50.13,-9.23l10.54,-31.34z" id="svg_41" opacity="0.05" transform="translate(-71.39 -32.23)"/>
  <path d="m319.94,551.69s19.79,-16.82 31,-17.15c3.34,-0.1 7.2,-3.5 11,-8.22a42.22,42.22 0 0 1 40.79,-15c6.38,1.18 14.23,1.15 23.76,-1.21c34.63,-8.58 17.48,-30 17.48,-30l-10.88,-9.23s-14.84,-10.22 -20.45,-9.56s-20.12,15.5 -21.77,13.85s-21.77,-16.49 -25.07,-20.45s-29.7,-16.82 -23.1,-20.45s39.9,-17.15 33.3,-19.79s-42.22,-6.6 -56.07,9.89s-6.93,117.75 0.01,127.32z" fill="#f8f9fa" id="svg_42" transform="translate(-71.39 -32.23)"/>
  <path d="m319.94,551.69s19.79,-16.82 31,-17.15c3.34,-0.1 7.2,-3.5 11,-8.22a42.22,42.22 0 0 1 40.79,-15c6.38,1.18 14.23,1.15 23.76,-1.21c34.63,-8.58 17.48,-30 17.48,-30l-10.88,-9.23s-14.84,-10.22 -20.45,-9.56s-20.12,15.5 -21.77,13.85s-21.77,-16.49 -25.07,-20.45s-29.7,-16.82 -23.1,-20.45s39.9,-17.15 33.3,-19.79s-42.22,-6.6 -56.07,9.89s-6.93,117.75 0.01,127.32z" id="svg_43" opacity="0.05" transform="translate(-71.39 -32.23)"/>
  <path d="m321.26,549.38s19.79,-16.82 31,-17.15c3.34,-0.1 7.2,-3.5 11,-8.22a42.22,42.22 0 0 1 40.74,-15.01c6.38,1.18 14.23,1.15 23.76,-1.21c34.63,-8.58 17.48,-30 17.48,-30l-10.88,-9.23s-14.84,-10.22 -20.45,-9.56s-20.12,15.5 -21.77,13.85s-21.77,-16.49 -25.07,-20.45s-29.65,-16.81 -23.07,-20.4s39.91,-17.15 33.31,-19.79s-42.22,-6.6 -56.07,9.89s-6.91,117.71 0.02,127.28z" fill="#f8f9fa" id="svg_44" transform="translate(-71.39 -32.23)"/>
  <path d="m417.89,437.9s5.28,-25.07 43.87,-15.17s57.72,31.33 57.72,31.33l-35,16.16l-42.88,-14.51s-24.03,0.29 -23.71,-17.81z" fill="#ffd5d8" id="svg_45" transform="translate(-71.39 -32.23)"/>
  <path d="m417.090001,399.4s37.11,8 40.61,13.51a1.19,1.19 0 0 0 0.29,0.34c1,0.66 2.64,16.49 13.19,14.51s34,16.16 34,16.16s16.16,1.65 21.77,16.82s15.17,44.86 21.44,48.48s-2.64,29.35 -9.89,32s-33.31,8.91 -35.62,5.61s-22.43,-6.93 -21.11,-17.48s9.23,-20.45 3,-26.72s-10.22,-22.76 -19.46,-26.06s-25.73,-4.29 -35.62,2.31s-21.84,6.89 -21.84,6.89s-20.45,-11.87 -23.75,-20.12c-2.22,-5.56 -13.28,-14.86 -20.26,-20.33a16,16 0 0 1 -6.11,-12c-0.29,-8.14 -0.55,-20.14 0.31,-22.08c1.32,-3 19.46,-20.78 19.46,-20.78l39.59,8.94z" id="svg_46" opacity="0.05"/>
  <path d="m418.410001,398.77s37.11,8 40.61,13.51a1.19,1.19 0 0 0 0.29,0.34c1,0.66 2.64,16.49 13.19,14.51s34,16.16 34,16.16s16.16,1.65 21.77,16.82s15.17,44.86 21.44,48.48s-2.64,29.35 -9.89,32s-33.31,8.91 -35.62,5.61s-22.43,-6.93 -21.11,-17.48s9.23,-20.45 3,-26.72s-10.22,-22.76 -19.46,-26.06s-25.73,-4.29 -35.62,2.31s-22.92,7.75 -22.92,7.75s-19.29,-12.7 -22.59,-20.94c-2.22,-5.56 -13.28,-14.86 -20.26,-20.33a16,16 0 0 1 -6.11,-12c-0.29,-8.14 -0.55,-20.14 0.31,-22.08c1.32,-3 19.46,-20.78 19.46,-20.78l39.51,8.9z" fill="#00B0FF" id="svg_47"/>
  <path d="m404.37,502.54c-0.33,0.33 -5.94,8.58 0.66,13.19a14.77,14.77 0 0 0 12.86,2.27l-13.52,-15.46z" fill="#ffd5d8" id="svg_48" transform="translate(-71.39 -32.23)"/>
  <path d="m436,430.64s8.91,-17.81 28,-13.19s46.83,21.44 53.43,38.26s-25,37.29 -25,37.29l-37.6,17.48s-11.54,4.62 -14.84,3s-19.13,12.52 -19.13,12.52s-17.81,-17.15 -17.81,-23.09s27.71,-14.91 27.71,-14.91s33,-6.27 32.65,-12.53c0,0 5.61,-6.6 2.64,-8.58s-34.8,-11.38 -34.8,-11.38s-1.15,-20.91 4.75,-24.87z" id="svg_49" opacity="0.1" transform="translate(-71.39 -32.23)"/>
  <path d="m435,429.65s8.91,-17.81 28,-13.19s46.83,21.44 53.43,38.26s-24.99,37.28 -24.99,37.28l-37.6,17.48s-11.54,4.62 -14.84,3s-19.13,12.52 -19.13,12.52s-17.81,-17.15 -17.81,-23.09s27.71,-14.91 27.71,-14.91s33,-6.27 32.65,-12.53c0,0 5.61,-6.6 2.64,-8.58s-34.8,-11.38 -34.8,-11.38s-1.15,-20.9 4.74,-24.86z" fill="#00B0FF" id="svg_50" transform="translate(-71.39 -32.23)"/>
  <path d="m392.83,466.59a41.14,41.14 0 0 1 17.61,-5.83c1.81,-3.49 -2.94,-7.29 -2.94,-11.49c0,-3.52 -1.34,-4.86 -2.64,-7.92c-4.72,-1.71 -1.48,-6.1 -1.48,-6.1l-10.55,31.34z" id="svg_51" opacity="0.1" transform="translate(-71.39 -32.23)"/>
  <circle cx="313.52" cy="420.18" fill="#ffd5d8" id="svg_52" r="25.4"/>
  <path d="m365.87,462.83c5.67,-4.38 13.05,-5.85 20.19,-6.49c4.46,-0.4 9,-0.54 13.28,-1.9a48.2,48.2 0 0 0 7.14,-3.16c3.06,-1.56 6.22,-3.2 8.31,-5.93c3.26,-4.26 3.16,-10.16 5.2,-15.13c3.69,-9 13.87,-13.66 23.53,-14.87c5.61,-0.71 11.74,-0.71 16.18,-4.22a12.27,12.27 0 0 0 4.39,-7.25a2.61,2.61 0 0 0 -0.16,-1.86a2.66,2.66 0 0 0 -1.07,-0.86c-5.8,-3.09 -12.78,-2.29 -19.35,-2.44c-10.69,-0.23 -21.11,-3.17 -31.45,-5.88c-4.38,-1.15 -9.11,-2.25 -13.33,-0.63c-4,1.53 -6.71,5.17 -9.92,8c-13.12,11.58 -34.9,9.9 -46.57,22.94c-2.7,3 -4.73,7.13 -3.74,11.06c0.41,1.61 1.29,3.08 1.58,4.72c0.57,3.23 -1.27,6.33 -2.83,9.21s-2.92,6.4 -1.47,9.33c2.23,4.48 9,4.15 12.53,7.7c1.64,1.65 2.42,4 4.13,5.6c2.74,2.52 6.93,2.32 10.63,2c2,-0.19 5.27,-0.85 4.7,-3.53c-0.48,-2.4 -3.65,-3.43 -1.9,-6.41z" fill="#85596b" id="svg_53" transform="translate(-71.39 -32.23)"/>
  <path d="m357,478s17.32,-13 28.2,-8.74s13.85,6.6 20.78,4s9.89,5.28 9.89,5.28l-43.16,12.46l-15.71,-13z" fill="#f8f9fa" id="svg_54" transform="translate(-71.39 -32.23)"/>
  <path d="m333.63,500.73s7.92,-20.45 17.48,-24.41" id="svg_55" opacity="0.05" transform="translate(-71.39 -32.23)"/>
  <path d="m323.4,494.13s7.92,-20.45 17.48,-24.41" id="svg_56" opacity="0.05" transform="translate(-71.39 -32.23)"/>
  <path d="m145.240001,723.41c-2.33,-2.17 -4.52,-4.73 -5.2,-7.84s0.65,-6.85 3.63,-8c3.33,-1.28 6.9,1 9.6,3.37s5.8,5 9.33,4.5a14.21,14.21 0 0 1 -4.39,-13.3a5.56,5.56 0 0 1 1.22,-2.7c1.85,-2 5.21,-1.13 7.42,0.43c7,5 9,14.53 9.05,23.15c0.71,-3.11 0.11,-6.35 0.13,-9.54s0.89,-6.72 3.58,-8.44a10.79,10.79 0 0 1 5.46,-1.28c3.17,-0.12 6.7,0.2 8.86,2.52c2.69,2.88 2,7.71 -0.35,10.88s-5.9,5.16 -9.17,7.35a20.34,20.34 0 0 0 -6.55,6.25a6.19,6.19 0 0 0 -0.49,1.12l-19.85,0a55.36,55.36 0 0 1 -12.28,-8.47z" fill="#00b0ff" id="svg_58"/>
  <path d="m448.770001,815.26a9.84,9.84 0 0 1 -3.23,-4.88c-0.42,-1.94 0.41,-4.26 2.26,-5c2.07,-0.79 4.29,0.64 6,2.1s3.6,3.11 5.8,2.8a8.83,8.83 0 0 1 -2.73,-8.27a3.45,3.45 0 0 1 0.76,-1.68c1.15,-1.23 3.24,-0.7 4.62,0.27c4.38,3.08 5.6,9 5.63,14.39c0.44,-1.93 0.07,-3.95 0.08,-5.93s0.55,-4.18 2.23,-5.24a6.71,6.71 0 0 1 3.4,-0.8c2,-0.07 4.16,0.13 5.51,1.57c1.67,1.79 1.24,4.79 -0.22,6.76s-3.67,3.21 -5.7,4.57a12.64,12.64 0 0 0 -4.07,3.89a3.85,3.85 0 0 0 -0.3,0.69l-12.41,0a34.41,34.41 0 0 1 -7.63,-5.24z" fill="#00b0ff" id="svg_59"/>
  <path clip-rule="evenodd" d="m233.797494,365.009149c-11.204214,3.213632 -24.200039,1.205112 -33.163157,-6.827834c-11.203581,-10.040899 -12.100019,-26.106791 -3.136901,-37.352801c-18.374455,1.606816 -32.714938,15.262484 -32.714938,32.131784c0,17.672141 16.133359,32.131216 35.851839,32.131216c14.788702,0 27.785159,-8.43465 33.163157,-20.082365z" fill="#fff" fill-rule="evenodd" id="svg_63"/>
  <circle fill="#E1E4E5" id="svg_66" r="7.446" transform="rotate(-75 114.973 519.573) translate(203.041 147.074) scale(1 -1)"/>
 </g>
</svg>