<?xml version="1.0"?>
<svg xmlns="http://www.w3.org/2000/svg" xmlns:svg="http://www.w3.org/2000/svg" xmlns:se="http://svg-edit.googlecode.com" xmlns:xlink="http://www.w3.org/1999/xlink" data-name="Layer 1">
 <title>coffee break</title>
 <defs>
 </defs>
 <g class="layer">
  <title>Layer 1</title>
  <ellipse cx="949.681652" cy="1246.319491" fill="#57b894" id="svg_9" rx="8.5" ry="17.5" transform="rotate(-63.6154 1036.16 2168.22)"/>
  <ellipse cx="879.964369" cy="1322.978618" fill="#57b894" id="svg_10" rx="8.5" ry="17.5" transform="rotate(-63.6154 909.071 2265.15)"/>
  <ellipse cx="834.66537" cy="1284.135613" fill="#57b894" id="svg_11" rx="8.5" ry="17.5" transform="rotate(-63.6154 851.139 2193.63)"/>
  <ellipse cx="814.228911" cy="1405.612957" fill="#57b894" id="svg_12" rx="8.5" ry="17.5" transform="rotate(-63.6154 786.361 2372.26)"/>
  <ellipse cx="849.06994" cy="1457.896493" fill="#57b894" id="svg_13" rx="8.5" ry="17.5" transform="rotate(-63.6154 824.689 2461.27)"/>
  <path d="m700.480702,250.959959l-2.75,20.17l-17,124.46l-27.84,203.82l-6.97,51.03a16.25533,16.25533 0 0 1 -16.11,14.06l-185.65,0a16.26025,16.26025 0 0 1 -16.11,-14.02l-7.09,-51.07l-28.31,-203.82l-17.3,-124.55l-2.78,-20.04a16.25518,16.25518 0 0 1 16.1,-18.5l295.7,0a16.2658,16.2658 0 0 1 16.11,18.46z" fill="#00b0ff" id="svg_20"/>
  <rect fill="#2f2e41" height="54" id="svg_21" rx="16.26001" width="290" x="392.0007" y="178.5"/>
  <path d="m784.5,235.6456l0,12.22a16.26023,16.26023 0 0 1 -16.26,16.26l-257.48,0a16.26023,16.26023 0 0 1 -16.26,-16.26l0,-12.19a1526.99976,1526.99976 0 0 0 290,-0.03z" id="svg_22" opacity="0.1" transform="translate(-102.4993 -31.62564)"/>
  <circle cx="459.5007" cy="343" fill="#2f2e41" id="svg_23" r="44"/>
  <circle cx="615.5007" cy="343" fill="#2f2e41" id="svg_24" r="44"/>
  <circle cx="457.5007" cy="343" fill="#fff" id="svg_25" r="12"/>
  <circle cx="475.5007" cy="320" fill="#fff" id="svg_26" r="5"/>
  <circle cx="615.5007" cy="343" fill="#fff" id="svg_27" r="12"/>
  <circle cx="633.5007" cy="320" fill="#fff" id="svg_28" r="5"/>
  <path d="m699.556122,242.999999l0.00195,0c-0.00464,-0.01227 -0.01062,-0.02387 -0.01532,-0.03608a16.2567,16.2567 0 0 0 -1.64135,-3.186l-0.00171,-0.00268c-0.19605,-0.29456 -0.40326,-0.57953 -0.61774,-0.86048c-0.07153,-0.094 -0.14526,-0.186 -0.21875,-0.27844a16.37183,16.37183 0 0 0 -2.07257,-2.16065c-0.16858,-0.14666 -0.33856,-0.29126 -0.51318,-0.431c-0.19611,-0.15643 -0.39338,-0.31012 -0.59681,-0.45758c-0.25433,-0.18487 -0.51678,-0.35864 -0.78216,-0.52887c-0.20935,-0.13391 -0.41937,-0.26538 -0.63532,-0.38983q-0.50005,-0.28922 -1.02166,-0.54406c-0.166,-0.08039 -0.33429,-0.15522 -0.50342,-0.23011q-0.49851,-0.22137 -1.01489,-0.40863c-0.13874,-0.05047 -0.2746,-0.10577 -0.41517,-0.15252q-0.71457,-0.23841 -1.45861,-0.41089c-0.12146,-0.02808 -0.24573,-0.048 -0.36823,-0.07337q-0.60846,-0.126 -1.2337,-0.20569c-0.15082,-0.01922 -0.30091,-0.03875 -0.45307,-0.05377c-0.53393,-0.05292 -1.07306,-0.08923 -1.62249,-0.08929l-0.00122,-0.00006l-295.7,0a16.3036,16.3036 0 0 0 -16.10113,18.49572l0.4696,3.38111l2.31153,16.66314l0.0028,0.00025l17.29857,124.54974l-0.00137,0l22.70832,163.49011l12.69409,91.39765a16.25911,16.25911 0 0 0 16.10449,14.02228l8.81024,0a16.24007,16.24007 0 0 1 -0.91473,-3.52228l-8.55109,-61.56775l209.38868,0l27.84,-203.82l-265.53695,0l-17.02172,-122.55628a1718.367,1718.367 0 0 0 299.55867,-1.90369l2.75,-20.17a16.13653,16.13653 0 0 0 -0.92458,-7.96z" fill="black" id="svg_29" opacity="0.1"/>
  <path d="m723.741702,259.499999a1720.99323,1720.99323 0 0 1 -373.48194,0a16.259,16.259 0 0 1 -16.259,-16.259l0,-21.482a16.259,16.259 0 0 1 16.259,-16.259a1530.24921,1530.24921 0 0 0 373.48194,0a16.259,16.259 0 0 1 16.259,16.259l0,21.482a16.259,16.259 0 0 1 -16.259,16.259z" fill="#2f2e41" id="svg_30"/>
  <path d="m660.535062,591.999999l-249.9851,0a9.42768,9.42768 0 0 1 -9.31112,-7.94974l-27.00709,-170.14462a9.42769,9.42769 0 0 1 9.31113,-10.90564l305.79973,0a9.42769,9.42769 0 0 1 9.2954,11.00151l-28.80756,170.14462a9.42769,9.42769 0 0 1 -9.29539,7.85387z" fill="#2f2e41" id="svg_31"/>
  <path d="m632.089552,470.720949a6.66219,6.66219 0 0 1 3.65312,11.12c-15.86094,16.90694 -54.3184,52.159 -99.242,52.159s-83.381,-35.25209 -99.242,-52.159a6.66219,6.66219 0 0 1 3.65312,-11.12a528.227,528.227 0 0 1 191.1777,0l0.00006,0z" fill="#00b0ff" id="svg_32"/>
  <path d="m586.498892,481.264019a6.663,6.663 0 0 1 3.62123,11.33167c-10.741,10.47261 -30.73195,26.26412 -53.61942,26.26412s-42.87837,-15.79151 -53.61942,-26.26412a6.663,6.663 0 0 1 3.62123,-11.33167a305.15552,305.15552 0 0 1 99.99638,0z" fill="#fff" id="svg_33"/>
  <line fill="none" id="svg_34" stroke="#3f3d56" stroke-miterlimit="10" x1="126.5007" x2="817.5007" y1="665" y2="665"/>
  <path d="m183.652562,572.444639l0,28.13072l14.44548,16.72634s6.0823,-2.28087 6.0823,-17.48663l2.28087,-22.04837l-22.80865,-5.32206z" fill="#a0616a" id="svg_35"/>
  <path d="m198.098042,600.575359s-23.56894,-15.96606 -24.32923,-21.28808s-34.213,-29.65125 -28.891,-14.44548s22.04836,22.04836 22.04836,22.04836s12.92491,34.97327 24.32923,34.213s11.40437,-15.2058 6.84264,-20.5278z" fill="#a0616a" id="svg_36"/>
  <polygon fill="#3f3d56" id="svg_37" points="211.783 771.64 214.064 785.325 201.899 782.284 201.899 771.64 211.783 771.64"/>
  <path d="m312.00166,810.86873s-14.05972,-8.32964 -14.63274,-4.545s-6.65533,18.23015 -9.69649,19.75073s-6.84259,18.24692 0,17.48663c5.29967,-0.58885 24.73757,-10.75521 33.23418,-15.31008a4.64254,4.64254 0 0 0 1.99621,-6.067a9.579,9.579 0 0 1 -1.01741,-2.95218c0,-1.5205 -9.88375,-8.3631 -9.88375,-8.3631z" fill="#2f2e41" id="svg_38" transform="translate(-102.4993 -31.62564)"/>
  <path d="m318.84426,656.53018s-55.50106,25.84981 -50.179,45.61731s25.08952,103.39922 25.08952,103.39922s22.04837,5.322 23.56894,0s-14.44548,-88.19345 -12.9249,-91.23461s29.65118,-22.80865 29.65118,-22.80865l57.782,-24.32923l-24.32923,-22.80865l-48.65851,12.16461z" fill="#2f2e41" id="svg_39" transform="translate(-102.4993 -31.62564)"/>
  <polygon fill="#3f3d56" id="svg_40" points="174.529 776.202 167.686 793.689 179.851 799.011 187.454 785.325 174.529 776.202"/>
  <path d="m215.584702,500.217239s6.8426,9.12347 1.52058,13.6852s-1.52058,21.28807 -1.52058,21.28807l6.8426,19.00721l27.37038,-5.322l0,-31.17184l-1.52058,-15.20577s-13.68519,-12.9249 -15.20577,-22.80865s-17.48663,20.52778 -17.48663,20.52778z" fill="#a0616a" id="svg_41"/>
  <path d="m215.584702,500.217239s6.8426,9.12347 1.52058,13.6852s-1.52058,21.28807 -1.52058,21.28807l6.8426,19.00721l27.37038,-5.322l0,-31.17184l-1.52058,-15.20577s-13.68519,-12.9249 -15.20577,-22.80865s-17.48663,20.52778 -17.48663,20.52778z" id="svg_42" opacity="0.1"/>
  <path d="m363.70128,650.44788s-35.73356,39.535 -35.73356,41.05557s-19.00721,32.6924 -19.00721,32.6924l-37.25413,82.87144s14.44548,19.7675 20.52778,18.24692s49.41875,-89.714 49.41875,-89.714s7.60289,-19.7675 28.13067,-24.32923s36.49385,-20.52779 28.891,-38.77471s-34.9733,-22.04839 -34.9733,-22.04839z" fill="#2f2e41" id="svg_43" transform="translate(-102.4993 -31.62564)"/>
  <circle cx="215.58467" cy="481.21004" fill="#a0616a" id="svg_44" r="24.32923"/>
  <path d="m216.344962,520.745029s3.04115,17.48663 6.08231,19.00721s5.322,6.8426 12.16461,-0.76029s12.9249,-22.80865 12.9249,-22.80865l23.569,28.891l2.28086,79.83028s-26.61009,-6.84259 -34.97327,0s-26.61009,6.08231 -26.61009,6.08231l3.80144,-15.20577l-3.04115,-25.8498l0.76029,-23.56894l0.76028,-16.72635l2.28082,-28.891z" fill="#f2f2f2" id="svg_45"/>
  <path d="m219.023322,507.947869s-10.28124,5.19428 -11.04153,8.23543s-14.44548,9.12346 -14.44548,9.12346s-5.322,5.322 -5.322,8.36317s18.2469,38.01443 18.2469,38.01443s3.80144,23.56894 2.28087,28.13067s3.04115,22.04836 3.04115,22.04836l-9.12346,10.644l8.36317,0s9.12346,-4.56173 9.12346,-6.8426s-1.52058,-18.24692 -2.28086,-25.08951s-0.76029,-31.17183 0.76028,-39.535s0.76029,-30.41154 0.76029,-35.73356s-0.36279,-17.35885 -0.36279,-17.35885z" fill="#3f3d56" id="svg_46"/>
  <path d="m242.574912,496.403289s3.4213,0.7728 13.305,3.814s25.08951,7.60289 30.41153,13.6852a94.24729,94.24729 0 0 1 9.88375,14.44548l-3.04115,54.74076s6.08231,11.40433 5.322,17.48664s-6.8426,6.84259 -2.28087,19.76749s13.68519,24.32923 5.322,25.84981s-30.41153,-3.80144 -40.29528,-0.76029s-21.28808,-11.40432 -21.28808,-11.40432s15.20577,1.52057 12.9249,-4.56174s-27.37038,-74.50826 -22.04836,-89.714s11.78456,-43.34903 11.78456,-43.34903z" fill="#3f3d56" id="svg_47"/>
  <path d="m192.015702,529.868489l-3.80144,3.04116s-10.644,38.01442 -7.60289,41.81586s27.37039,12.16461 28.891,6.84259s-17.48667,-51.69961 -17.48667,-51.69961z" fill="#3f3d56" id="svg_48"/>
  <path d="m304.538422,556.478589s11.40432,32.6924 11.40432,41.81586s-1.52058,62.34365 -1.52058,62.34365s-0.76028,22.80865 -16.72634,13.68519s0,-15.20577 0,-15.20577s-0.76029,-60.06278 -6.8426,-68.42595s-8.36317,-20.52779 -8.36317,-20.52779l22.04837,-13.68519z" fill="#a0616a" id="svg_49"/>
  <path d="m282.35042,824.55392s-11.40433,-6.0823 -13.6852,-1.52057s-14.44548,29.65125 -12.9249,32.6924s9.88375,15.20577 19.7675,12.16461s10.644,-19.00721 10.644,-19.00721l0.76029,-18.24692l-4.56169,-6.08231z" fill="#2f2e41" id="svg_50" transform="translate(-102.4993 -31.62564)"/>
  <path d="m210.820642,475.333269c1.6759,0.78886 3.664,1.2602 4.71714,2.784c0.78033,1.1291 0.8579,2.59638 1.42727,3.84522a5.43744,5.43744 0 0 0 6.99527,2.55818a6.03223,6.03223 0 0 1 2.45993,-3.73583a3.583,3.583 0 0 1 4.25368,0.23352c1.56706,1.494 1.01244,4.09923 1.74363,6.1371a12.95311,12.95311 0 0 0 2.78617,3.82048c1.66408,1.92 2.9898,4.17181 4.99378,5.73377s5.043,2.23889 7.03394,0.66032c1.6741,-1.32737 2.02109,-3.77624 1.61458,-5.87368s-1.41475,-4.02891 -1.98336,-6.08833c-1.84761,-6.69179 1.098,-13.83608 0.18662,-20.71818c-1.16775,-8.81839 -8.66294,-15.784 -17.02889,-18.807a19.922,19.922 0 0 0 -10.99393,-1.16482c-3.82594,0.85429 -7.09438,3.29007 -10.75866,4.68315c-3.91853,1.48974 -8.17957,1.74987 -12.28027,2.62079s-8.32062,2.55482 -10.70025,6.00614c-1.65974,2.40721 -2.23022,5.39673 -3.60572,7.97693a14.311,14.311 0 0 1 -7.24878,6.49424l4.33481,-0.24707a12.777,12.777 0 0 1 -3.45385,5.04091a9.26945,9.26945 0 0 0 6.00092,-0.79323a6.52323,6.52323 0 0 1 -2.23734,4.67625c3.33564,-0.10048 6.85319,-0.25422 9.67172,-2.041c1.38059,-0.87519 2.50644,-2.09416 3.8056,-3.08621c2.7692,-2.11458 6.20478,-3.11829 9.55388,-4.07948c1.7586,-0.50471 3.87536,-1.20653 5.46579,-0.0755c1.32444,0.94194 1.53355,2.6331 3.24632,3.43933z" fill="#2f2e41" id="svg_51"/>
  <path d="m284.770922,519.224449l11.40432,9.12347l15.20577,34.97326s-21.28807,16.72635 -26.61009,14.44548s-14.44548,-42.57615 -14.44548,-42.57615l14.44548,-15.96606z" fill="#3f3d56" id="svg_52"/>
  <path d="m273.91,586.17171l-0.19054,1.39753l-1.17788,8.6235l-1.929,14.12215l-0.48293,3.53574a1.12631,1.12631 0 0 1 -1.11622,0.97418l-12.8632,0a1.12662,1.12662 0 0 1 -1.11622,-0.97141l-0.49125,-3.53851l-1.96152,-14.12215l-1.19868,-8.62974l-0.19261,-1.38852a1.12628,1.12628 0 0 1 1.11552,-1.28182l20.48833,0a1.127,1.127 0 0 1 1.1162,1.27905z" fill="#00b0ff" id="svg_53" transform="translate(-102.4993 -31.62564)"/>
  <rect fill="#2f2e41" height="3.74152" id="svg_54" rx="1.12661" width="20.09334" x="150.03694" y="549.52551"/>
  <path d="m275.52171,586.76342a119.24225,119.24225 0 0 1 -25.87758,0a1.12654,1.12654 0 0 1 -1.12655,-1.12654l0,-1.48843a1.12655,1.12655 0 0 1 1.12655,-1.12655a106.0267,106.0267 0 0 0 25.87758,0a1.12655,1.12655 0 0 1 1.12654,1.12655l0,1.48843a1.12654,1.12654 0 0 1 -1.12654,1.12654z" fill="#2f2e41" id="svg_55" transform="translate(-102.4993 -31.62564)"/>
  <path d="m271.14229,609.80147l-17.32081,0a0.65322,0.65322 0 0 1 -0.64515,-0.55081l-1.87125,-11.78888a0.65323,0.65323 0 0 1 0.64515,-0.75562l21.18806,0a0.65322,0.65322 0 0 1 0.644,0.76227l-1.996,11.78887a0.65322,0.65322 0 0 1 -0.644,0.54417z" fill="#2f2e41" id="svg_56" transform="translate(-102.4993 -31.62564)"/>
  <g id="svg_59"/>
 </g>
</svg>