<?xml version="1.0"?>
<svg xmlns="http://www.w3.org/2000/svg" xmlns:svg="http://www.w3.org/2000/svg" xmlns:se="http://svg-edit.googlecode.com">
 <g class="layer">
  <title>Layer 1</title>
  <g data-name="Group 14" id="Group_14">
   <g data-name="Group 9" id="Group_9" transform="translate(-237 346.007)"/>
   <rect data-name="Rectangle 1" fill="#00B0FF" height="2" id="Rectangle_1" transform="translate(182.787 779.636)" width="870.4" x="-182.787003" y="-183.376999"/>
   <g data-name="Group 10" id="Group_10" transform="translate(100 164.584)"/>
   <g data-name="Group 11" id="Group_11" transform="matrix(0.914 0.407 -0.407 0.914 266.183 -179.59)"/>
   <g data-name="Group 12" id="Group_12" transform="matrix(0.996 -0.087 0.087 0.996 -217.382 -42.579)"/>
   <g data-name="Group 13" id="Group_13">
    <circle cx="-1830.787003" cy="-1470.437057" data-name="Ellipse 21" fill="#2f2e41" id="Ellipse_21" r="33" transform="translate(2259.76 1653.65)"/>
    <circle cx="-1839.226003" cy="-1478.876057" data-name="Ellipse 22" fill="#feb8b8" id="Ellipse_22" r="24.561001" transform="translate(2268.87 1673.44)"/>
    <path d="m466.972003,230.208882s-45,-8 -74,2l8.5,67.5l-2,11l60,-2l-4,-11l11.5,-67.5z" data-name="Path 159" fill="#feb8b8" id="Path_159"/>
    <path d="m435.701003,303.050882a302.545,302.545 0 0 1 -31,-1.964a8.492,8.492 0 0 1 -7.561,-8.645l0.73,-31.567l0.085,-0.123c8.694,-12.593 4.459,-21.791 1.2,-26.743a6.4,6.4 0 0 1 -1.052,-3.522l0,0c-0.5,-0.7 -0.612,0.405 -0.3,-0.379a2.51,2.51 0 0 1 1.836,-1.538l4.964,-0.992a2.5,2.5 0 0 1 2.858,1.651c1.668,4.977 8.169,20.991 23.066,20.987c12.445,0 17.089,-17.611 17.367,-21.681a2.5,2.5 0 0 1 2.493,-2.322l6.2,0a2.617,2.617 0 0 1 2.066,0.934a2.48,2.48 0 0 1 0.244,2.751c-7.076,13.01 3.265,33.6 3.37,33.8l0.066,0.13l-2.918,30.293a8.541,8.541 0 0 1 -6.574,7.477c-4.511,1.059 -10.608,1.453 -17.14,1.453z" data-name="Path 160" fill="#00B0FF" id="Path_160"/>
    <path d="m378.594003,373.338882c-6.72,0 -12.872,-0.74 -17.76,-2.489c-5.81,-2.079 -9.458,-5.441 -10.844,-10a13.2,13.2 0 0 1 1.606,-11.673c8.595,-12.87 38.421,-16.5 42.423,-16.929l2.12,-17.667a8.531,8.531 0 0 1 8.307,-7.486l50.232,-0.784a8.421,8.421 0 0 1 8.5,6.977l2.854,15.7l-32.938,15.975l4.98,13.945l-0.325,0.217c-9.64,6.426 -37.363,14.213 -59.155,14.214z" data-name="Path 161" fill="#2f2e41" id="Path_161"/>
    <path d="m461.472003,326.708882s46,-6 43,18s-38,41 -91,0l6,-12s30,8 42,2l0,-8z" data-name="Path 162" fill="#2f2e41" id="Path_162"/>
    <path d="m420.472003,335.708882s0,-12 -10,-11s-28,2 -28,2s-6,4 2,6s32,12 32,12l4,-9z" data-name="Path 163" fill="#feb8b8" id="Path_163"/>
    <path d="m437.472003,333.708882s0,-12 10,-11s28,2 28,2s6,4 -2,6s-32,12 -32,12l-4,-9z" data-name="Path 164" fill="#feb8b8" id="Path_164"/>
    <path d="m497.394003,331.435882l-14.921,-51.727s-3,-18 -6,-35s-14,-15 -14,-15l-2,1l0,27l2,25l19.965,54.9a10.5,10.5 0 1 0 14.956,-6.177l0,0.004z" data-name="Path 165" fill="#feb8b8" id="Path_165"/>
    <path d="m396.472003,231.708882s-11,-2 -14,15s-6,35 -6,35l-14.921,51.727a10.5,10.5 0 1 0 14.956,6.177l19.965,-54.9l2,-25l0,-24.768a3.618,3.618 0 0 0 -2,-3.236z" data-name="Path 166" fill="#feb8b8" id="Path_166"/>
    <path d="m-1022.452003,-924.413057a73.043,73.043 0 0 0 31.6,10.412l-3.331,-3.991a24.48,24.48 0 0 0 7.561,1.5a8.281,8.281 0 0 0 6.75,-3.159a7.7,7.7 0 0 0 0.516,-7.115a14.588,14.588 0 0 0 -4.589,-5.739a27.323,27.323 0 0 0 -25.431,-4.545a16.33,16.33 0 0 0 -7.6,4.872a9.236,9.236 0 0 0 -1.863,8.561" data-name="Path 167" fill="#2f2e41" id="Path_167" transform="translate(1427.78 1103.89)"/>
    <path d="m-995.703003,-950.016057a75.485,75.485 0 0 0 -27.463,-17.759c-6.639,-2.459 -13.865,-3.979 -20.805,-2.582s-13.5,6.2 -15.44,13.008c-1.583,5.568 0.052,11.564 2.509,16.806s5.738,10.1 7.725,15.54a35.468,35.468 0 0 1 -35.69,47.566c6.819,0.914 13.105,4.119 19.771,5.825s14.533,1.59 19.486,-3.185c5.241,-5.052 5.346,-13.267 5.092,-20.542l-1.13,-32.445c-0.192,-5.515 -0.356,-11.208 1.633,-16.356s6.716,-9.656 12.235,-9.609c4.183,0.036 7.884,2.569 11.239,5.068s6.9,5.165 11.071,5.536s8.923,-2.711 8.611,-6.883" data-name="Path 168" fill="#2f2e41" id="Path_168" transform="translate(1427.78 1103.89)"/>
   </g>
  </g>
 </g>
</svg>